<svg xmlns="http://www.w3.org/2000/svg" width="151.767" height="176.315" viewBox="0 0 40.155 46.65"><path d="M186.383 98.642c.253-.883-2.312-4.836-2.312-4.836s1.261.715 1.05.21c-.21-.504-2.102-3.153-2.102-3.153s1.808 1.009 1.808.799-2.817-3.743-4.625-6.476c-1.809-2.733-2.692-2.103-3.575-2.187-1.303-.925-.294-4.962 1.514-5.719s2.355-.715 2.355-.715c.589-.126 4.205 0 4.78.1-1.054-1.997-1.664-2.44-3.773-3.05-2.108-.611-4.5-1.954-5.16-2.22-1.566-.633-6.696.082-7.874.713-1.177.63-2.907 3.91-6.307 8.704-1.64 2.313-4.163 4.247-3.617 8.327.547 4.079 2.637 7.886 3.008 8.157.23.169.272-1.345.272-1.345s3.196 5.034 4.5 5.755c1.303.72 4.878 1.94 4.878 1.94h.034c.213.56.507 1.03.848 1.298.025.255-.044.38-.228.538-.768.713-3.697 5.434-4.066 5.388-.37.05-4.108.668-4.29.978 0 0-.537.047-.57.557 0 0 .429-.28.56-.147 0 0 1.037.075 2.174.116-1.288.176-2.955.42-3.037.634 0 0-.524.13-.475.64 0 0 .378-.345.528-.234 0 0 1.073.047 2.364-.126-.564.422-1.118.994-1.008 1.632.17-.375.377-.43.821-.425.445.004 1.49-.744 1.682-1.026s2.197-.824 3.123-1.363c.462.208 1.241.505 1.848.533.303.014.48-.162.48-.162l.33.232s.215-1.102-1.002-1.024c-.718.046-1.77-.022-1.365-.832.687-1.375 3.047-4.653 3.462-5.116.232-.257.377-.814.46-1.259.251-.312.473-.696.664-1.088.525-.32 1.6-.748 2.967-.089-.028 1.422.53 3.01 1.312 3.623a.8.8 0 0 1-.205.24c-.837.778-7.005 7.028-7.408 6.977-.402.055-3.734-.029-3.93.31 0 0-.587.05-.622.607 0 0 .466-.306.609-.16 0 0 .508.096 1.688.113-1.097.193-2.536.464-2.628.703 0 0-.57.143-.518.698 0 0 .412-.376.576-.255 0 0 1.17.051 2.576-.137-.614.46-1.217 1.083-1.098 1.779.186-.409.41-.468.895-.464s1.623-.81 1.833-1.118c.21-.307 2.395-.898 3.404-1.485.504.226 1.353.55 2.014.58.33.016.524-.176.524-.176l.36.253s.233-1.201-1.093-1.116c-.783.05-1.93-.024-1.488-.907.749-1.498 5.553-5.419 6.007-5.923.185-.205.318-.586.413-.966.312-.374.585-.855.815-1.339.822.93 2.507 2.76 2.949 2.671.21-.042-.337-1.43-.337-1.43s1.85 1.64 2.187 1.724-.42-1.472-.42-1.472 1.808 1.479 2.144 1.476-.63-1.644-.63-1.644 3.406 1.977 3.952 2.06c.547.085-1.808-2.606-1.808-2.606s4.5 2.903 5.046 2.817-3.532-4.331-3.532-4.331 7.318 4.328 7.527 3.869-10.303-8.663-12.238-9.63" style="stroke-width:.264583" transform="translate(-158.47 -71.149)"/></svg>
